<svg width="42" height="48" viewBox="0 0 42 48" fill="none" xmlns="http://www.w3.org/2000/svg">
<path d="M22.2129 0.326764C21.4624 -0.108922 20.5376 -0.108921 19.7871 0.326765L1.21235 11.1095C0.462128 11.545 0 12.3497 0 13.2205V34.7795C0 35.6505 0.462287 36.4552 1.21271 36.8907L7.565 40.5767C8.21174 40.952 9.02013 40.4829 9.02013 39.7323V18.4544C9.02013 17.5837 9.48214 16.7791 10.2322 16.3436L19.7872 10.7952C20.5376 10.3594 21.4624 10.3593 22.213 10.7948L31.7747 16.3437C32.525 16.7791 32.9873 17.5839 32.9873 18.4548V29.5454C32.9873 30.4164 32.525 31.2211 31.7747 31.6566L22.2132 37.2053C21.4625 37.6409 20.5376 37.6407 19.7871 37.2047L15.9352 34.9672C15.2885 34.5915 14.4797 35.0606 14.4797 35.8114V43.1832C14.4797 44.0537 14.9415 44.8582 15.6914 45.2938L19.7869 47.6729C20.5375 48.1089 21.4626 48.1091 22.2133 47.6732L40.7877 36.8908C41.5379 36.4553 42 35.6506 42 34.7798V13.2205C42 12.3497 41.5379 11.545 40.7877 11.1095L22.2129 0.326764Z" fill="#1D3068"/>
<path d="M26.5575 28.347C27.1579 27.9987 27.5277 27.3548 27.5277 26.658V21.3348C27.5277 20.638 27.1579 19.9941 26.5575 19.6458L21.9706 16.9842C21.37 16.6358 20.6301 16.636 20.0297 16.9847L15.4491 19.6456C14.8492 19.9941 14.4797 20.6377 14.4797 21.3341V26.6587C14.4797 27.3551 14.8492 27.9987 15.4491 28.3472L20.0297 31.0081C20.6301 31.3568 21.37 31.357 21.9706 31.0086L26.5575 28.347Z" fill="#1D3068"/>
</svg>
